<?xml version="1.0" encoding="UTF-8"?> <svg xmlns="http://www.w3.org/2000/svg" width="16" height="13" viewBox="0 0 16 13" fill="none"> <path d="M1.02159 3.25C1.02159 3.25 5.00277 5.77139 7 6.25C7.34468 6.3326 8.15532 6.3326 8.5 6.25C10.5735 5.75311 14.4784 3.25 14.4784 3.25M4.6 11.5H10.9C12.1601 11.5 12.7902 11.5 13.2715 11.2548C13.6948 11.039 14.039 10.6948 14.2548 10.2715C14.5 9.79018 14.5 9.16012 14.5 7.9V4.6C14.5 3.33988 14.5 2.70982 14.2548 2.22852C14.039 1.80516 13.6948 1.46095 13.2715 1.24524C12.7902 1 12.1601 1 10.9 1H4.6C3.33988 1 2.70982 1 2.22852 1.24524C1.80516 1.46095 1.46095 1.80516 1.24524 2.22852C1 2.70982 1 3.33988 1 4.6V7.9C1 9.16012 1 9.79018 1.24524 10.2715C1.46095 10.6948 1.80516 11.039 2.22852 11.2548C2.70982 11.5 3.33988 11.5 4.6 11.5Z" stroke="#E22427" stroke-width="1.5" stroke-linecap="round" stroke-linejoin="round"></path> </svg> 